Coordinates
version=1
nRows=4
nColumns=40
inDegrees=yes

Units are S.I. units (second, meters, Newtons, ...)
If the header above contains a line with 'inDegrees', this indicates whether rotational values are in degrees (yes) or radians (no).

endheader
time	pelvis_tilt	pelvis_list	pelvis_rotation	pelvis_tx	pelvis_ty	pelvis_tz	hip_flexion_r	hip_adduction_r	hip_rotation_r	knee_angle_r	knee_angle_r_beta	ankle_angle_r	subtalar_angle_r	mtp_angle_r	hip_flexion_l	hip_adduction_l	hip_rotation_l	knee_angle_l	knee_angle_l_beta	ankle_angle_l	subtalar_angle_l	mtp_angle_l	lumbar_extension	lumbar_bending	lumbar_rotation	arm_flex_r	arm_add_r	arm_rot_r	elbow_flex_r	pro_sup_r	wrist_flex_r	wrist_dev_r	arm_flex_l	arm_add_l	arm_rot_l	elbow_flex_l	pro_sup_l	wrist_flex_l	wrist_dev_l
      5.12000000000000010658	     35.08426648629499311483	     16.07751265478555069421	   -154.95930095413032745455	      0.43586697641795019154	      0.67505507980838364013	     -0.57122114021927172800	     83.32906296245683108737	    -39.16167705859088243869	    -27.37248977131155669440	     71.41629162372274208792	      1.24644942839840910942	     19.82388734127249918515	      0.00000000000000000000	      0.00000000000000000000	     94.34152462180418297066	     17.15866719837949361249	     16.27834655179986711460	     62.53696500187451334796	      1.09147594348717213997	      6.73682420944344872993	      0.00000000000000000000	      0.00000000000000000000	    -33.52132656508844377186	     35.79600164111546689583	      8.61761225070404890403	    -89.86305855630547512192	   -119.91085878983589907421	    -72.65875460907710703395	     56.42673243944263106187	     80.76538879453757147076	      0.00000000000000000000	      0.00000000000000000000	     58.45129956575873109159	     13.62377123632135855757	     61.11908999789105223499	      0.45972490393168596867	      2.00309697877065406857	      0.00000000000000000000	      0.00000000000000000000
      5.12500000000000000000	     47.46190447172452309132	     -2.78618078249722200823	   -177.17437180702751220451	      0.43538881575655580258	      0.66241171058842096553	     -0.61538989537765764748	    104.71552560098504613961	    -12.36394403221022919581	      0.97160309254648469235	     67.63130330062824668858	      1.18038892001087125649	     14.36972265624327604883	      0.00000000000000000000	      0.00000000000000000000	    102.27946695820311617808	     -6.83049040454976275072	     -3.18134320435148554296	     64.16771880192274579713	      1.11993796658742295058	     10.49305034023992178049	      0.00000000000000000000	      0.00000000000000000000	    -25.33549255664606647542	      1.67823567327240552594	      0.84068770512121804295	     66.52984231630594536000	    -10.30309486894163129023	     41.30561399170351677412	      1.03713929694110373880	     86.28144148016509973331	      0.00000000000000000000	      0.00000000000000000000	     56.87080915932192937134	     -1.15231160494019513330	     40.09551453740241555579	      0.62489420430148767682	      2.71554577209539926841	      0.00000000000000000000	      0.00000000000000000000
      5.12999999999999989342	     47.32063798916352226342	     -2.42193939741698383017	   -177.23133456725159362577	      0.43512477286950612676	      0.66431421800632184382	     -0.61574273023087455758	    104.14540607330285126864	    -12.38944074959033336825	      0.39963059997512978549	     67.20951183293716724165	      1.17302727014284280393	     14.45034407398756748364	      0.00000000000000000000	      0.00000000000000000000	    101.93354057019935510198	     -6.74944994994642399888	     -2.67860709119695172831	     63.75882230101755254736	      1.11280137634674347602	     10.59111500097182734237	      0.00000000000000000000	      0.00000000000000000000	    -25.64960457372065505410	      2.05016706366227463576	      0.96303713385164635419	     66.63843114964484470875	    -10.26234267130069355289	     42.49901387612469960686	      1.04513694254568356712	     86.41854667621758778751	      0.00000000000000000000	      0.00000000000000000000	     57.54629281359414250119	     -1.05936789806576436845	     35.97444651517398739315	      0.63413289372621883810	      2.74843224357514293033	      0.00000000000000000000	      0.00000000000000000000
      5.13499999999999978684	     47.44157668428095320223	     -2.38436511188972266595	   -177.38953190260772885267	      0.43541577342614756763	      0.66599645943526331049	     -0.61631148215574615978	    103.94521292564819248128	    -12.16526376414804921922	      0.28025652249373222968	     66.67755906287338518723	      1.16374294284012536060	     14.30241179117694194645	      0.00000000000000000000	      0.00000000000000000000	    101.79092813689292995605	     -6.94175707057522828336	     -2.69877828376331585503	     63.29223059658752248424	      1.10465781484194724982	     10.29340813610432014968	      0.00000000000000000000	      0.00000000000000000000	    -25.68278070765556719834	      1.99896854193629014418	      1.13886405173271842983	     66.72259248894522443152	    -10.24653658359452990112	     41.90179253104865608748	      1.04482487219603070727	     86.43652374527415815919	      0.00000000000000000000	      0.00000000000000000000	     57.34613482424054353714	     -1.12990155872800301928	     37.92710473358459921656	      0.63057494989664775176	      2.74234936736943302193	      0.00000000000000000000	      0.00000000000000000000
